<svg width="696.3500061035156" height="2205" xmlns="http://www.w3.org/2000/svg">
<line x1="76.80000000000001" y1="778.5" x2="148.8" y2="778.5" stroke="#aaaaaa" stroke-width="3"/>
<line x1="76.80000000000001" y1="382.5" x2="148.8" y2="382.5" stroke="#aaaaaa" stroke-width="3"/>
<line x1="76.80000000000001" y1="1750.5" x2="148.8" y2="1750.5" stroke="#aaaaaa" stroke-width="3"/>
<line x1="76.80000000000001" y1="1138.5" x2="148.8" y2="1138.5" stroke="#aaaaaa" stroke-width="3"/>
<line x1="76.80000000000001" y1="1282.5" x2="148.8" y2="1282.5" stroke="#aaaaaa" stroke-width="3"/>
<line x1="76.80000000000001" y1="1426.5" x2="148.8" y2="1426.5" stroke="#aaaaaa" stroke-width="3"/>
<line x1="76.80000000000001" y1="2038.5" x2="184.8" y2="2038.5" stroke="#aaaaaa" stroke-width="3"/>
<line x1="76.80000000000001" y1="2110.5" x2="184.8" y2="2110.5" stroke="#aaaaaa" stroke-width="3"/>
<line x1="148.8" y1="2038.5" x2="148.8" y2="2110.5" stroke="#aaaaaa" stroke-width="3"/>
<rect x="97.80000000000001" y="763.5" width="30" height="30" fill="#e3970b"/>
<text x="106.80000000000001" y="784.38" style="font-family:Arial" font-size="18.900000000000002" fill="#ffffff">H</text>
<rect x="97.80000000000001" y="367.5" width="30" height="30" fill="#37abc8"/>
<text x="106.80000000000001" y="388.38" style="font-family:Arial" font-size="18.900000000000002" fill="#ffffff">X</text>
<rect x="97.80000000000001" y="1735.5" width="30" height="30" fill="#37abc8"/>
<text x="106.80000000000001" y="1756.38" style="font-family:Arial" font-size="18.900000000000002" fill="#ffffff">Y</text>
<rect x="97.80000000000001" y="1123.5" width="30" height="30" fill="#37abc8"/>
<text x="106.80000000000001" y="1144.38" style="font-family:Arial" font-size="18.900000000000002" fill="#ffffff">Z</text>
<rect x="97.80000000000001" y="1267.5" width="30" height="30" fill="#37abc8"/>
<text x="106.80000000000001" y="1288.38" style="font-family:Arial" font-size="18.900000000000002" fill="#ffffff">S</text>
<rect x="97.80000000000001" y="1411.5" width="30" height="30" fill="#37abc8"/>
<text x="106.80000000000001" y="1432.38" style="font-family:Arial" font-size="18.900000000000002" fill="#ffffff">T</text>
<rect x="97.80000000000001" y="2023.5" width="30" height="30" fill="#37abc8"/>
<text x="106.80000000000001" y="2044.38" style="font-family:Arial" font-size="18.900000000000002" fill="#ffffff">X</text>
<rect x="134.04000000000002" y="2031.3000000000002" width="29.52" height="18" fill="#ffffff"/>
<path d="M 133.8 2038.5 Q 148.8 2038.5 148.8 2053.5" fill="none" stroke="#aaaaaa" stroke-width="3"/>
<path d="M 163.8 2038.5 Q 148.8 2038.5 148.8 2053.5" fill="none" stroke="#aaaaaa" stroke-width="3"/>
<rect x="134.04000000000002" y="2101.5" width="29.52" height="18" fill="#ffffff"/>
<path d="M 133.8 2110.5 Q 148.8 2110.5 148.8 2095.5" fill="none" stroke="#aaaaaa" stroke-width="3"/>
<path d="M 163.8 2110.5 Q 148.8 2110.5 148.8 2095.5" fill="none" stroke="#aaaaaa" stroke-width="3"/>
<text x="174" y="570" style="font-family:Arial" font-size="21" fill="#555555">-- Hadamard --</text>
<text x="30" y="606" style="font-family:Arial" font-size="21" fill="#555555">This allows the creation of superposition, where</text>
<text x="354" y="750" style="font-family:Arial" font-size="21" fill="#555555">input</text>
<text x="462.00000000000006" y="750" style="font-family:Arial" font-size="21" fill="#555555">output (unnormalised)</text>
<text x="354" y="786" style="font-family:Arial" font-size="21" fill="#555555">|0⟩</text>
<text x="462.00000000000006" y="786" style="font-family:Arial" font-size="21" fill="#555555">|0⟩ + |1⟩</text>
<text x="354" y="822" style="font-family:Arial" font-size="21" fill="#555555">|1⟩</text>
<text x="462.00000000000006" y="822" style="font-family:Arial" font-size="21" fill="#555555">|0⟩ - |1⟩</text>
<text x="66" y="642" style="font-family:Arial" font-size="21" fill="#555555">the circuit exists in multiple states at once,</text>
<text x="210" y="246" style="font-family:Arial" font-size="21" fill="#555555">-- Pauli X --</text>
<text x="30" y="282" style="font-family:Arial" font-size="21" fill="#555555">This is the equivalent of the classical NOT gate</text>
<text x="354" y="354" style="font-family:Arial" font-size="21" fill="#555555">input</text>
<text x="462.00000000000006" y="354" style="font-family:Arial" font-size="21" fill="#555555">output</text>
<text x="354" y="390" style="font-family:Arial" font-size="21" fill="#555555">|0⟩</text>
<text x="462.00000000000006" y="390" style="font-family:Arial" font-size="21" fill="#555555">|1⟩</text>
<text x="354" y="426" style="font-family:Arial" font-size="21" fill="#555555">|1⟩</text>
<text x="462.00000000000006" y="426" style="font-family:Arial" font-size="21" fill="#555555">|0⟩</text>
<text x="102" y="966" style="font-family:Arial" font-size="21" fill="#555555">-- Pauli Z (and other phase gates) --</text>
<text x="30" y="1002" style="font-family:Arial" font-size="21" fill="#555555">These all add some sort of global phase to the state,</text>
<text x="138" y="1038" style="font-family:Arial" font-size="21" fill="#555555">assuming an input of |1⟩</text>
<text x="354" y="1722" style="font-family:Arial" font-size="21" fill="#555555">input</text>
<text x="354" y="1110" style="font-family:Arial" font-size="21" fill="#555555">input</text>
<text x="354" y="1254" style="font-family:Arial" font-size="21" fill="#555555">input</text>
<text x="354" y="1398" style="font-family:Arial" font-size="21" fill="#555555">input</text>
<text x="462.00000000000006" y="1722" style="font-family:Arial" font-size="21" fill="#555555">output</text>
<text x="462.00000000000006" y="1110" style="font-family:Arial" font-size="21" fill="#555555">output</text>
<text x="462.00000000000006" y="1254" style="font-family:Arial" font-size="21" fill="#555555">output</text>
<text x="462.00000000000006" y="1398" style="font-family:Arial" font-size="21" fill="#555555">output (unnormalised)</text>
<text x="354" y="1758" style="font-family:Arial" font-size="21" fill="#555555">|0⟩</text>
<text x="354" y="1794" style="font-family:Arial" font-size="21" fill="#555555">|1⟩</text>
<text x="354" y="1146" style="font-family:Arial" font-size="21" fill="#555555">|0⟩</text>
<text x="354" y="1182" style="font-family:Arial" font-size="21" fill="#555555">|1⟩</text>
<text x="354" y="1290" style="font-family:Arial" font-size="21" fill="#555555">|0⟩</text>
<text x="354" y="1326" style="font-family:Arial" font-size="21" fill="#555555">|1⟩</text>
<text x="354" y="1434" style="font-family:Arial" font-size="21" fill="#555555">|0⟩</text>
<text x="354" y="1470" style="font-family:Arial" font-size="21" fill="#555555">|1⟩</text>
<text x="462.00000000000006" y="1758" style="font-family:Arial" font-size="21" fill="#555555">i |1⟩</text>
<text x="462.00000000000006" y="1794" style="font-family:Arial" font-size="21" fill="#555555">-i |0⟩</text>
<text x="462.00000000000006" y="1146" style="font-family:Arial" font-size="21" fill="#555555">|0⟩</text>
<text x="462.00000000000006" y="1182" style="font-family:Arial" font-size="21" fill="#555555">- |1⟩</text>
<text x="462.00000000000006" y="1290" style="font-family:Arial" font-size="21" fill="#555555">|0⟩</text>
<text x="462.00000000000006" y="1326" style="font-family:Arial" font-size="21" fill="#555555">i |1⟩</text>
<text x="462.00000000000006" y="1470" style="font-family:Arial" font-size="21" fill="#555555">(1+i) |1⟩</text>
<text x="462.00000000000006" y="1434" style="font-family:Arial" font-size="21" fill="#555555">|0⟩</text>
<text x="210" y="1614" style="font-family:Arial" font-size="21" fill="#555555">-- Pauli Y --</text>
<text x="66" y="1650" style="font-family:Arial" font-size="21" fill="#555555">Performs a NOT as well as adding a phase</text>
<text x="174" y="66" style="font-family:Arial" font-size="21" fill="#555555">Agate Gates List</text>
<text x="138" y="30" style="font-family:Arial" font-size="21" fill="#555555">----------------------------------</text>
<text x="138" y="138" style="font-family:Arial" font-size="21" fill="#555555">----------------------------------</text>
<text x="210" y="102" style="font-family:Arial" font-size="21" fill="#555555">by Lumorti</text>
<text x="30" y="678" style="font-family:Arial" font-size="21" fill="#555555">resulting in a 50/50 chance of measuring either</text>
<text x="354" y="2010" style="font-family:Arial" font-size="21" fill="#555555">input</text>
<text x="462.00000000000006" y="2010" style="font-family:Arial" font-size="21" fill="#555555">output</text>
<text x="354" y="2046" style="font-family:Arial" font-size="21" fill="#555555">|00⟩</text>
<text x="462.00000000000006" y="2046" style="font-family:Arial" font-size="21" fill="#555555">|00⟩</text>
<text x="210" y="1902" style="font-family:Arial" font-size="21" fill="#555555">-- Swap --</text>
<text x="138" y="1938" style="font-family:Arial" font-size="21" fill="#555555">Swaps the two qubits</text>
<text x="354" y="2082" style="font-family:Arial" font-size="21" fill="#555555">|01⟩</text>
<text x="462.00000000000006" y="2082" style="font-family:Arial" font-size="21" fill="#555555">|10⟩</text>
<text x="354" y="2118" style="font-family:Arial" font-size="21" fill="#555555">|10⟩</text>
<text x="462.00000000000006" y="2118" style="font-family:Arial" font-size="21" fill="#555555">|01⟩</text>
<text x="354" y="2154" style="font-family:Arial" font-size="21" fill="#555555">|11⟩</text>
<text x="462.00000000000006" y="2154" style="font-family:Arial" font-size="21" fill="#555555">|11⟩</text>
</svg>